# xmcd CD database file
#
# Track frame offsets:
#	150
#	55471
#	97655
#	135134
#	178851
#	221749
#	268958
#
# Disc length: 4206 seconds
#
# Revision: 0
# Processed by: cddbd v1.5.2PL0 Copyright (c) Steve Scherf et al.
# Submitted via: CDex 1.70beta2
#
DISCID=62106c07
DTITLE=Fred Longberg-Holm - Gather
DYEAR=2012
DGENRE=Jazz
TTITLE0=Infra-Pass
TTITLE1=It's a Tough Grid
TTITLE2=Later News
TTITLE3=Lazy Day
TTITLE4=Faster, Citizens! Kill! Kill!
TTITLE5=Simpler Days
TTITLE6=Roses
EXTD=YEAR: 2012
EXTT0=
EXTT1=
EXTT2=
EXTT3=
EXTT4=
EXTT5=
EXTT6=
PLAYORDER=
